<?xml version="1.0" encoding="UTF-8"?>
<svg width="772" height="250" viewBox="0 0 772 250" xmlns="http://www.w3.org/2000/svg">
    <defs>
        <linearGradient id="bgGradient" x1="0%" y1="0%" x2="100%" y2="100%">
            <stop offset="0%" style="stop-color:#2D1B69;stop-opacity:1" />
            <stop offset="100%" style="stop-color:#1E4D92;stop-opacity:1" />
        </linearGradient>
        
        <filter id="glow">
            <feGaussianBlur stdDeviation="2" result="coloredBlur"/>
            <feMerge>
                <feMergeNode in="coloredBlur"/>
                <feMergeNode in="SourceGraphic"/>
            </feMerge>
        </filter>

        <linearGradient id="flowGradient" x1="0%" y1="0%" x2="100%" y2="0%">
            <stop offset="0%" style="stop-color:rgba(255,255,255,0.1)"/>
            <stop offset="50%" style="stop-color:rgba(255,255,255,0.2)"/>
            <stop offset="100%" style="stop-color:rgba(255,255,255,0.1)"/>
        </linearGradient>
    </defs>

    <!-- Main background -->
    <rect width="100%" height="100%" fill="url(#bgGradient)"/>

    <!-- Network nodes -->
    <g id="network-nodes">
        <circle cx="100" cy="50" r="3" fill="rgba(255,255,255,0.3)"/>
        <circle cx="200" cy="75" r="2" fill="rgba(255,255,255,0.3)"/>
        <circle cx="300" cy="40" r="3" fill="rgba(255,255,255,0.3)"/>
        <circle cx="400" cy="60" r="2" fill="rgba(255,255,255,0.3)"/>
        <circle cx="500" cy="45" r="3" fill="rgba(255,255,255,0.3)"/>
        <circle cx="600" cy="70" r="2" fill="rgba(255,255,255,0.3)"/>
        <circle cx="700" cy="55" r="3" fill="rgba(255,255,255,0.3)"/>
        
        <circle cx="150" cy="175" r="2" fill="rgba(255,255,255,0.3)"/>
        <circle cx="250" cy="190" r="3" fill="rgba(255,255,255,0.3)"/>
        <circle cx="350" cy="200" r="2" fill="rgba(255,255,255,0.3)"/>
        <circle cx="450" cy="185" r="3" fill="rgba(255,255,255,0.3)"/>
        <circle cx="550" cy="195" r="2" fill="rgba(255,255,255,0.3)"/>
        <circle cx="650" cy="180" r="3" fill="rgba(255,255,255,0.3)"/>
    </g>

    <!-- Interconnected paths -->
    <g id="network-paths" stroke="url(#flowGradient)" stroke-width="1">
        <!-- Upper curve -->
        <path d="M0,50 C100,40 200,60 300,45 S400,30 500,50 S600,70 772,50" 
              fill="none" opacity="0.3"/>
        <!-- Lower curve -->
        <path d="M0,175 C150,190 300,160 450,175 S600,190 772,175" 
              fill="none" opacity="0.3"/>
        <!-- Vertical connections -->
        <path d="M100,50 L150,175" fill="none" opacity="0.2"/>
        <path d="M300,40 L350,200" fill="none" opacity="0.2"/>
        <path d="M500,45 L550,195" fill="none" opacity="0.2"/>
        <path d="M700,55 L650,180" fill="none" opacity="0.2"/>
        
        <!-- Diagonal connections -->
        <path d="M200,75 Q300,125 250,190" fill="none" opacity="0.2"/>
        <path d="M400,60 Q450,125 450,185" fill="none" opacity="0.2"/>
        <path d="M600,70 Q550,125 550,195" fill="none" opacity="0.2"/>
    </g>

    <!-- Floating geometric shapes -->
    <g id="geometric-accents" fill="rgba(255,255,255,0.05)">
        <polygon points="50,100 75,125 50,150 25,125" />
        <polygon points="700,75 725,100 700,125 675,100" />
        <rect x="350" y="225" width="20" height="20" transform="rotate(45 360 235)" />
        <rect x="600" y="150" width="15" height="15" transform="rotate(30 607.5 157.5)" />
    </g>

    <!-- Main search circle -->
    <circle cx="386" cy="100" r="50" fill="none" 
            stroke="#4CAF50" stroke-width="4" 
            filter="url(#glow)"/>

    <!-- Excluded items visualization -->
    <g transform="translate(386,100)">
        <circle r="30" fill="none" stroke="#FF5252" stroke-width="2" stroke-dasharray="4,2"/>
        <line x1="-20" y1="-20" x2="20" y2="20" stroke="#FF5252" stroke-width="2"/>
        <line x1="20" y1="-20" x2="-20" y2="20" stroke="#FF5252" stroke-width="2"/>
    </g>

    <!-- Plugin name -->
    <text x="386" y="175" text-anchor="middle" 
          font-family="Arial, sans-serif" font-size="24" 
          font-weight="bold" fill="white">
        Exclude Search
    </text>

    <!-- Tagline -->
    <text x="386" y="200" text-anchor="middle" 
          font-family="Arial, sans-serif" font-size="12" 
          fill="rgba(255,255,255,0.9)">
        Precision Control for WordPress Search Results
    </text>
</svg>
